<?xml version="1.0" encoding="utf-8"?>
<!-- Generator: Adobe Illustrator 15.0.0, SVG Export Plug-In . SVG Version: 6.00 Build 0)  -->
<!DOCTYPE svg PUBLIC "-//W3C//DTD SVG 1.1//EN" "http://www.w3.org/Graphics/SVG/1.1/DTD/svg11.dtd">
<svg version="1.1" id="Layer_1" xmlns="http://www.w3.org/2000/svg" xmlns:xlink="http://www.w3.org/1999/xlink" x="0px" y="0px"
	 width="82.167px" height="80.963px" viewBox="0 0 82.167 80.963" enable-background="new 0 0 82.167 80.963" xml:space="preserve">
<g id="XMLID_1_">
	<g>
		<path fill="#8F8080" d="M23.733,76.191l-0.17,0.35c-13.36-6.5-22.56-20.199-22.56-36.06c0-8.97,2.94-17.25,7.93-23.93l0.04,0.03
			c5.25,0,10.2-0.22,14.69-0.37C23.583,36.211,23.583,56.191,23.733,76.191z"/>
		<path fill="#A59999" d="M23.664,16.211c-4.49,0.15-9.44,0.37-14.69,0.37l-0.04-0.03c7.3-9.8,18.98-16.15,32.15-16.15
			c9.76,0,18.71,3.48,25.65,9.28l-19.78,14.17C46.374,15.812,37.104,15.741,23.664,16.211z"/>
		<path fill="#D2CCCC" d="M81.164,40.481c0,10.44-3.99,19.95-10.53,27.08l-37.75-33.64l14.07-10.07l19.78-14.17
			C75.553,17.042,81.164,28.102,81.164,40.481z"/>
		<path fill="#E9E6E6" d="M23.733,40.481l9.15-6.56l37.75,33.64c-7.33,7.99-17.85,13-29.55,13c-6.28,0-12.23-1.44-17.52-4.021
			l0.17-0.35c-0.15-20-0.15-39.98-0.07-59.98l0.03,24.27H23.733z"/>
		<path fill="#FF6D00" d="M23.664,16.211c13.44-0.47,22.71-0.4,23.29,7.64l-14.07,10.07l-9.15,6.56h-0.04L23.664,16.211z"/>
	</g>
	<g>
		<polyline fill="none" stroke="#000000" stroke-miterlimit="10" points="32.883,33.921 70.633,67.562 70.694,67.621 		"/>
		<path fill="none" stroke="#000000" stroke-miterlimit="10" d="M23.664,16.082c0,0.04,0,0.09,0,0.13
			c-0.08,20-0.08,39.98,0.07,59.98"/>
		<polyline fill="none" stroke="#000000" stroke-miterlimit="10" points="23.733,40.481 32.883,33.921 46.954,23.852 66.734,9.682 
			66.753,9.671 		"/>
		<path fill="none" stroke="#000000" stroke-miterlimit="10" d="M46.954,23.852c-0.58-8.04-9.85-8.11-23.29-7.64
			c-4.49,0.15-9.44,0.37-14.69,0.37"/>
		<path fill="none" stroke="#000000" stroke-miterlimit="10" d="M66.734,9.682c8.819,7.36,14.43,18.42,14.43,30.8
			c0,10.44-3.99,19.95-10.53,27.08c-7.33,7.99-17.85,13-29.55,13c-6.28,0-12.23-1.44-17.52-4.021
			c-13.36-6.5-22.56-20.199-22.56-36.06c0-8.97,2.94-17.25,7.93-23.93c7.3-9.8,18.98-16.15,32.15-16.15
			C50.843,0.401,59.793,3.881,66.734,9.682z"/>
	</g>
</g>
</svg>
